inDegrees=no
num_controls=7
num_derivatives=13
num_iterations=92
num_multipliers=7
num_parameters=0
num_slacks=7
num_states=26
objective=0.334991
objective_accelerations=0.034930
objective_balance=0.001301
objective_effort=0.025891
objective_height=0.271412
objective_ligament=0.001457
solver_duration=990.020118
status=Solve_Succeeded
success=true
DataType=double
version=3
OpenSimVersion=4.5
endheader
time	/jointset/ground_pelvis/pelvis_tilt/value	/jointset/ground_pelvis/pelvis_tx/value	/jointset/ground_pelvis/pelvis_ty/value	/jointset/hip_r/hip_flexion_r/value	/jointset/hip_r/hip_adduction_r/value	/jointset/hip_r/hip_rotation_r/value	/jointset/back/lumbar_extension/value	/jointset/patellofemoral_r/patellar_flexion_r/value	/jointset/knee_r/knee_flexion_r/value	/jointset/knee_r/knee_adduction_r/value	/jointset/knee_r/knee_rotation_r/value	/jointset/ankle_r/ankle_angle_r/value	/jointset/subtalar_r/subtalar_angle_r/value	/jointset/ground_pelvis/pelvis_tilt/speed	/jointset/ground_pelvis/pelvis_tx/speed	/jointset/ground_pelvis/pelvis_ty/speed	/jointset/hip_r/hip_flexion_r/speed	/jointset/hip_r/hip_adduction_r/speed	/jointset/hip_r/hip_rotation_r/speed	/jointset/back/lumbar_extension/speed	/jointset/patellofemoral_r/patellar_flexion_r/speed	/jointset/knee_r/knee_flexion_r/speed	/jointset/knee_r/knee_adduction_r/speed	/jointset/knee_r/knee_rotation_r/speed	/jointset/ankle_r/ankle_angle_r/speed	/jointset/subtalar_r/subtalar_angle_r/speed	/forceset/tau_hip_flexion_r	/forceset/tau_hip_adduction_r	/forceset/tau_hip_rotation_r	/forceset/tau_knee_flexion_r	/forceset/tau_ankle_angle_r	/forceset/tau_subtalar_angle_r	/forceset/tau_lumbar_extension	lambda_cid13_p0	lambda_cid14_p0	lambda_cid14_p1	lambda_cid14_p2	lambda_cid14_p3	lambda_cid14_p4	lambda_cid14_p5	/jointset/ground_pelvis/pelvis_tilt/accel	/jointset/ground_pelvis/pelvis_tx/accel	/jointset/ground_pelvis/pelvis_ty/accel	/jointset/hip_r/hip_flexion_r/accel	/jointset/hip_r/hip_adduction_r/accel	/jointset/hip_r/hip_rotation_r/accel	/jointset/back/lumbar_extension/accel	/jointset/patellofemoral_r/patellar_flexion_r/accel	/jointset/knee_r/knee_flexion_r/accel	/jointset/knee_r/knee_adduction_r/accel	/jointset/knee_r/knee_rotation_r/accel	/jointset/ankle_r/ankle_angle_r/accel	/jointset/subtalar_r/subtalar_angle_r/accel	gamma_cid13_p0	gamma_cid14_p0	gamma_cid14_p1	gamma_cid14_p2	gamma_cid14_p3	gamma_cid14_p4	gamma_cid14_p5
0	-0.008822163424778791	0.1326148283501291	0.9329927125354737	0.1934211968871041	-0.2325984765223631	-0.2359867145917906	-0.2903787966825928	0.2311786273363508	0.2311786273363406	0.1425609331700545	0.1704797951471155	0.089344008118978	0.05831423338755953	0	0	0	0	0	0	0	0	0	0	0	0	0	0.102727965487012	-0.03469666013189111	0.004516378970996464	-0.2453513236723331	0.1298188672980711	-0.11943344868095	-0.02244506311523333	-29.8777647636464	-6.426718299617503	-48.27345951630125	2.72465882073182	-0.8010804842455126	-615.5976706096988	20.65470152747162	-2.057452289028749	-1.698086252922647	-0.7824698952312694	9.650032001354173	0.4006473532673095	2.255618221345378	-5.596393881923907	9.389159013290993	9.389159013291037	-3.251202027769224	0.01283603308737068	2.661370695239072	1.224987744167155	9.986597514838602e-08	6.318110090040426e-08	-6.277271128741137e-07	3.107917418792949e-07	3.138222880228463e-08	9.381483752182864e-08	-4.300880753016041e-07
0.01	-0.008917634336972338	0.1325322729704191	0.9329546223051011	0.1938901347794537	-0.2325770070518337	-0.2358761916954017	-0.2906613737718513	0.2316429632305244	0.2316429632305043	0.1423964407015065	0.1704803128333195	0.08947862245789524	0.05837774048781795	-0.0188424529044276	-0.0162953885222194	-0.007606689024347268	0.09315480497075246	0.004163706342803938	0.02175016556315896	-0.056270649966805	0.0927888644527152	0.09278886445271196	-0.03262466644541131	0.0004806117409078453	0.02712982309730823	0.01260742602901395	0.1020336112215741	-0.05348900982580425	0.004398019819691026	-0.2496119293883893	0.1351931160325564	-0.1060712208851818	-0.02093388442329333	-29.88195724093193	-3.92549038498374	-41.91314642887233	1.574551603756063	-4.842829731971562	-615.9754059356072	34.2984927598	-1.759877046904812	-1.562905762980851	-0.74804608547719	9.053295004178603	0.4046654857928721	2.081623270134894	-5.605685370887765	9.211983031204516	9.211983031203809	-3.227095710958787	0.1223005237757472	2.769852110364676	1.264458163629491	8.88214353229783e-08	4.446604376009208e-08	-5.449482772993067e-07	4.1709504912183e-07	3.414859107155643e-08	6.705879627189572e-08	-5.130658811795401e-07
0.02	-0.009193976829350591	0.1322932355832638	0.9328408096485943	0.1952716387733901	-0.232517813875688	-0.2355587856341261	-0.2914993143241393	0.2330328343431924	0.2330328343431859	0.141913902217003	0.1704969619927821	0.08989074782645617	0.05856448947463871	-0.03617431603903272	-0.03129640148906557	-0.01514448522687346	0.1825132203111517	0.00754474112582123	0.04137663297965366	-0.1110726926067268	0.1851070437031329	0.1851070437031292	-0.0636092032120868	0.003226294649150597	0.05550220593014419	0.02464837731246637	0.1013392569563139	-0.07228135951964068	0.004279660668504771	-0.2538725351044305	0.1405673647670641	-0.09270899308931707	-0.01942270573118889	-29.89484304925229	-1.349255994608872	-35.56343942982946	0.4532523676229958	-8.817078640916513	-615.1123613874034	47.60588038281556	-1.755334335063978	-1.439211141848189	-0.7686913308670351	8.890754075283521	0.2441130413099467	1.830878592012411	-5.302672416547067	9.295021972831536	9.295021972832133	-2.923176092022029	0.4658502665544033	2.909882642344402	1.111692795054797	7.777689549757058e-08	2.57509866197799e-08	-4.621694417244997e-07	5.233983563643652e-07	3.691495334082824e-08	4.030275502196278e-08	-5.96043687057476e-07
0.03	-0.00963815742658204	0.1319089603653165	0.9326518753178228	0.1975297898203168	-0.2324280777495096	-0.2350525540653714	-0.2928768041027913	0.2353386218523349	0.2353386218523403	0.1411301366546433	0.170547426582484	0.09058815191226728	0.05886827314317977	-0.05258632744619055	-0.04551282368281696	-0.02263382630032475	0.2686694830625505	0.0103744009732471	0.05995090868945316	-0.1641024942193203	0.2754819251618946	0.2754819251618952	-0.09289878760624211	0.006613742374642165	0.08374038801205079	0.03601004408543857	0.09598793513271424	-0.07298052966785551	0.004924287019067098	-0.2476930207744713	0.1308550381530983	-0.08761137772388139	-0.01511820025656533	-29.91666806618693	-4.231637873893127	-33.7159212466599	0.0007262419201533131	-7.172382910886599	-615.7424181668084	50.37990381997086	-1.572809783048363	-1.405977602013787	-0.7377643490161615	8.410939868861213	0.2982136270363688	1.882982461385417	-5.254718697482242	8.823425776924884	8.823425776924795	-2.895098532123119	0.2373571223885929	2.745056279957125	1.133647223565425	1.009317260412791e-07	2.790673598858274e-08	-6.038920121908016e-07	5.645128527011858e-07	5.394975984671846e-08	-5.394606070408184e-08	-6.764617182309273e-07
0.04	-0.01024419318576152	0.1313838969566552	0.93238830580563	0.2006360789935267	-0.2323108807907521	-0.2343581236593355	-0.2947749088303389	0.2385310990849946	0.2385310990849923	0.1400608254646282	0.1706241986687326	0.09156079187666526	0.05928272220047993	-0.06854534843365011	-0.05945403963186052	-0.03007152151117081	0.3521408455655909	0.01303690764376095	0.07901640043611897	-0.2151956823865446	0.3624449884017218	0.3624449884017244	-0.1207183287608187	0.008487793973828213	0.1105493816477047	0.04678145506428504	0.09063661330908872	-0.07367969981605109	0.00556891336936534	-0.2415135064444663	0.1211427115391588	-0.08251376235841254	-0.0108136947819749	-29.94608739045168	-7.04374847976599	-31.87499233294374	-0.4291683723344961	-5.484839551172946	-615.2328008247042	52.85824520966194	-1.664736251124019	-1.384169892906868	-0.758362158345969	8.353774025611898	0.2106824059275126	1.929121799385566	-4.915349727473048	8.612658329044711	8.612658329044843	-2.629167444106262	0.1631710412933551	2.624044953093594	0.9936416362295787	1.247916982420829e-07	3.049281126479001e-08	-7.502434776270233e-07	6.042832498440742e-07	7.12787610791369e-08	-1.495864800275721e-07	-7.568269705444922e-07
